<?xml version="1.0" encoding="UTF-8"?>
<svg xmlns="http://www.w3.org/2000/svg" viewBox="0 0 409.71 411.55">
  <defs>
    <style>
      .cls-1 {
        fill: #9ec68a;
      }

      .cls-2 {
        fill: #e8f0ec;
      }

      .cls-3 {
        fill: #fff;
      }

      .cls-4, .cls-5 {
        stroke: #fff;
      }

      .cls-4, .cls-5, .cls-6, .cls-7 {
        fill: none;
      }

      .cls-4, .cls-6 {
        stroke-linejoin: round;
      }

      .cls-5, .cls-7 {
        stroke-miterlimit: 10;
      }

      .cls-8 {
        fill: #545fac;
      }

      .cls-9 {
        fill: #7e9e6e;
      }

      .cls-6, .cls-7 {
        stroke: #000;
        stroke-linecap: round;
      }

      .cls-10 {
        font-family: LucidaBright, 'Lucida Bright';
        font-size: 21px;
      }

      .cls-11 {
        fill: #dfdfeb;
      }

      .cls-12 {
        fill: #146a3e;
      }

      .cls-13 {
        fill: #b9d2c5;
      }

      .cls-14 {
        fill: #ba6f4c;
      }
    </style>
  </defs>
  <g id="BACKGROUND">
    <path class="cls-2" d="M216.55,53.97c72.7,41.52,105.13,137.65,72.43,214.72-32.7,77.07-118.15,105.89-190.85,64.38C25.42,291.55-7.01,195.42,25.69,118.35,58.4,41.28,143.84,12.46,216.55,53.97Z"/>
  </g>
  <g id="OBJECTS">
    <ellipse class="cls-11" cx="300.39" cy="387.09" rx="60.92" ry="11.3"/>
    <g>
      <rect class="cls-13" y="99.16" width="248.9" height="164.01" rx="10.16" ry="10.16"/>
      <path class="cls-12" d="M238.74,99.16H10.16c-5.61,0-10.16,4.55-10.16,10.16v9.98h248.9v-9.98c0-5.61-4.55-10.16-10.16-10.16Z"/>
      <g>
        <circle class="cls-4" cx="207.61" cy="109.55" r="3.6"/>
        <circle class="cls-4" cx="221.06" cy="109.55" r="3.6"/>
        <circle class="cls-4" cx="234.51" cy="109.55" r="3.6"/>
      </g>
      <g>
        <path class="cls-12" d="M102.06,149.42c-2.84,0-5.58-1.9-7.76-3.71l-2.65-2.21c-1.64-1.37-3.59-2.1-5.59-2.1h-22.62c-2.05,0-3.72,1.66-3.72,3.72v83.33c0,2.76,2.23,4.99,4.99,4.99h114.21c2.76,0,4.99-2.23,4.99-4.99v-74.03c0-2.76-2.23-4.99-4.99-4.99h-76.86Z"/>
        <path class="cls-5" d="M174.81,165.41h-32.31c-1.44,0-2.61-1.17-2.61-2.61h0c0-1.44,1.17-2.61,2.61-2.61h32.31c1.44,0,2.61,1.17,2.61,2.61h0c0,1.44-1.17,2.61-2.61,2.61Z"/>
      </g>
    </g>
    <g>
      <path class="cls-14" d="M366.91,143.2s5.74,13.49,6.48,17.4c2.27,11.98,13.03,44.93,16.68,49.05,0,0,6.8.73,10.2-1.21,0,0-8.5-53.91-12.14-61.2-3.64-7.29-6.07-19.18-6.07-19.18l-15.14,15.14Z"/>
      <g>
        <path class="cls-14" d="M399.43,206.57c-3.76-3.13-11.35-1.27-12.67,3.44-1.08,3.83-1.12,5.99-1.21,6.65-.19,1.28-4.84,9.2-3.95,10.82.65,1.18,3.94-2.52,5.58-5.11.34-.53,1.16-.33,1.21.3.31,3.52,1,10.57,1.61,11.44.81,1.17,3.77,6.14,4.65,5.6s-.11-4-.88-6.31c-.77-2.31.18-7.47.18-7.47,0,0,3.9,11.75,5.56,13.88,2.46,3.16,3.28-2,3.28-2,1.48,1.62,2.91-2.23,2.66-3.44-.5-2.39-4.21-10.85-3.55-10.54.66.31,4.83,9.25,6.72,9.51,1.89.26.98-2.97-.09-5.1-1.06-2.14-3.94-8.28-3.94-8.28,0,0-.96-5.82-4.54-12.08-.03-.05-.58-1.26-.62-1.3Z"/>
        <line class="cls-7" x1="402.71" y1="237.52" x2="397.58" y2="225.6"/>
      </g>
      <polygon points="364.2 120.74 310.53 118.54 310.53 39.35 338.78 35.27 364.2 120.74"/>
      <path class="cls-7" d="M337.94,34.6s10.49,24.66,19.48,57.89"/>
      <path class="cls-14" d="M243,133.01s12.63,5.61,41.92-16.49l-12.45-13.86-29.47,30.34Z"/>
      <path class="cls-1" d="M335,77.24c.53-.09,3.82,2.98,4.4,3.33,5.59,3.41,10.22,3.91,16.53,5.11,12.44,2.37,21.21,22.19,22.48,26.34,1.49,4.89,4.09,13.31,5.58,18.21,0,0-2.45,13.62-18.2,13.32l-7.89-16.84s-8.95,20.17-9.47,21.75c-.53,1.58,5.44,21.22,5.44,21.22,0,0-47.01,18.07-74.37,8.33,0,0,9.28-35.46,6.79-36.61-2.36-1.09-7.26-5.36-1.35-24.87,0,0-9.91-5.79-12.28-21.05,0,0,12.89-11.93,21.05-12.19,8.15-.26,41.3-6.05,41.31-6.05Z"/>
      <path class="cls-3" d="M315.26,90.79s3.42,9.08,13.81,3.95c8.56-4.23,11.4-11.12,12.14-13.42-3.57-2.04-6.22-4.08-6.22-4.08,0,0-14.57,2.54-26.77,4.33-.66,1.37-6.55,14.2,7.03,9.22Z"/>
      <path class="cls-14" d="M334.08,60.26l.92,16.97s-7.89,11.97-17.36,10.66l-1.84-10.79,18.29-16.84Z"/>
      <path class="cls-14" d="M318.04,256.85l5.64,71.04,1.23,46.39s10.24,6.63,15.52-3.08c0,0,9.47-48.15,8.4-64.7-1.06-16.55.8-36.04.8-36.04l-31.61-13.61Z"/>
      <path d="M277.97,367.18s-28.94,24.91-26.33,24.91,14.9-1.75,22.86-3.68c7.96-1.93,11.14-7.02,11.14-7.02l.58,4.91,5.5-.7s6.22-13.16,1.88-20.52c-4.34-7.37-15.62,2.1-15.62,2.1Z"/>
      <polygon points="282.02 382.61 286.22 386.3 288.24 380.07 284.99 379.28 282.02 382.61"/>
      <path d="M324.87,368.14s-10.81,32.34-7.16,32.76c6.94.79,15.37-6.88,17.98-11.8,2.6-4.91,2.31-12.63,2.31-12.63l-2.46,5.79h5.06s2.75-2.63.58-15.26c0,0-16.31,16.01-16.31,1.14Z"/>
      <path class="cls-14" d="M280.14,254.57l-2.17,112.61s9.98,6.84,15.62-2.1c0,0,11.28-45.25,10.85-61.04-.43-15.79,2.17-34.2,2.17-34.2l-26.48-15.26Z"/>
      <path d="M284.22,156.69s12.63,23.15,66.83,3.16c0,0,21.05,54.73,4.74,115.77,0,0-46.31,21.57-90.51-4.21,0,0,7.37-75.77,18.94-114.71Z"/>
      <path class="cls-14" d="M284.92,79.34s-40.08,28.24-43.06,33.15c-2.98,4.91-9.21,16.14-.44,20.35s43.59-34.12,52.01-47.1l-8.51-6.4Z"/>
      <path class="cls-7" d="M248.79,131.44s12.5-6.8,27.41-23.81"/>
      <path class="cls-7" d="M287,141.85s33.18,15.9,53.7-1.64"/>
      <line class="cls-7" x1="357.89" y1="126.7" x2="350.75" y2="115.51"/>
      <line class="cls-7" x1="284.92" y1="116.53" x2="288.95" y2="108.46"/>
      <path class="cls-14" d="M306.5,70.36c-2.25-.21-4.4,2.15-5.26,1.88-.68-.21-1.61-3.46-1.95-4.77,1.3-7.61.41-13.51-1.38-11.93-.1.08-.21.26-.32.49-.26-2.41-.95-3.62-1.88-2.8-.25.23-.61,1.07-.94,1.94-.28-2.27-.95-3.39-1.85-2.59-.44.39-1.21,2.66-1.54,3.69-.18-.22-.44-.31-.77-.42-1.29-.43-4.26,10.7-4.4,11.27-.14.57-3.29,13.02-3.29,13.02-1.14,4.51,7.85,6.58,10.5,5.58,2.65-1,8.68-7.51,8.68-7.51,0-.01-.02-.02-.02-.04.21-.3.51-.76.94-1.45.91-1.48,5.53-5.21,5.64-5.53s.11-.64-2.15-.86Z"/>
      <path d="M308.65,71.22c.11-.32.11-.64-2.15-.86s-4.4,2.15-5.26,1.88c-.68-.21-1.61-3.46-1.95-4.77,1.3-7.61.41-13.51-1.38-11.93-.1.08-.21.26-.32.49-.26-2.41-.95-3.62-1.88-2.8-.25.23-.61,1.07-.94,1.94-.13-1.06-.35-1.86-.64-2.34-.29,7.76.57,19.54,7.46,25.92.31-.33.5-.53.5-.53,0-.01-.02-.02-.02-.04.21-.3.51-.76.94-1.45.91-1.48,5.53-5.21,5.64-5.53Z"/>
      <g>
        <path d="M332.04,63.49l2.04-3.22-18.29,16.84,1.39,8.17c7.59-1.24,11.15-13.51,14.85-21.79Z"/>
        <path class="cls-14" d="M297.1,44.43s-5.41,30.74,12.43,36.95c17.83,6.21,24.11-23.13,24.15-33.41.04-10.28-4.75-15.67-17.45-16.96-18.79-1.9-19.13,13.42-19.13,13.42Z"/>
        <path d="M337.63,32.57c-3.65-5.28-9.01-8.18-22.45-7.94-10.23.19-16.65,7.02-18.83,10.56-.71,1.15-2.45,4.4.91,7.88,0,0,.11-2.47,2.39-5.21,0,0,21.29,11.54,29.79,9.84l2.03,7.98s2.88-4.08,5.84-5.41c0,0,3.98-12.43.33-17.71Z"/>
        <path class="cls-14" d="M341.01,57.95c-1.38,4.01-4.77,6.5-7.57,5.57-2.8-.94-3.94-4.95-2.55-8.97s4.77-6.5,7.57-5.57c2.8.94,3.94,4.95,2.55,8.97Z"/>
        <path d="M314.74,57.62c-.02,1.06-.57,1.9-1.24,1.89-.67,0-1.2-.87-1.18-1.93.02-1.06.57-1.9,1.24-1.89.67,0,1.2.87,1.18,1.93Z"/>
        <path d="M300.67,57.57c.04.99-.42,1.82-1.03,1.84-.61.03-1.13-.76-1.17-1.75-.04-.99.42-1.82,1.03-1.84.61-.03,1.13.76,1.17,1.75Z"/>
        <path class="cls-7" d="M319.28,49.54s-4.88.72-4.9-3.86"/>
        <path class="cls-7" d="M303,48.11s-1.5,4.16-4.96,1.47"/>
        <path d="M314.48,74.63s2.01-6.36,6.69-2.34l-6.69,2.34Z"/>
        <path class="cls-6" d="M338.39,54.21s-3.02-2.96-5.1,1.96c0,0,1.74,2.1.46,3.59,0,0,1.82.54,2.83-1.03"/>
        <path class="cls-6" d="M336.88,56.04s-.11-1.13-1.26-2.49"/>
        <path class="cls-7" d="M302.51,61.5c-.65.72-.84,1.63-.6,2.63.24.99,1.19,1.65,2.19,1.69"/>
      </g>
      <path class="cls-3" d="M335.66,63.52c0,1.51-1.22,2.73-2.73,2.73s-2.73-1.22-2.73-2.73,1.22-2.73,2.73-2.73,2.73,1.22,2.73,2.73Z"/>
      <path class="cls-7" d="M289.83,83.9s1.05,2.28,3.6,1.84"/>
      <path class="cls-7" d="M291.39,56.29s1.91,1.01-1.18,11.93c0,0,1.91,6.91,1.38,8.22-.53,1.32-3.16,3.51-3.95,3.6"/>
      <path class="cls-7" d="M296.76,73.11s-2.63,2.98-2.72,7.1"/>
      <path class="cls-7" d="M294.78,55.18s.62,8.37-.69,12.91"/>
    </g>
    <g>
      <path class="cls-11" d="M211.3,404.51c0,3.89-9.05,7.03-20.22,7.03s-20.22-3.15-20.22-7.03,9.05-7.04,20.22-7.04,20.22,3.15,20.22,7.04Z"/>
      <g>
        <g>
          <path class="cls-9" d="M190.62,299.87s-6.12.57-4.03-15.26c1.98-15.04,9.56-26,10.14-26.05,0,0,10.9,15.64,4.07,29.21-6.83,13.56-10.17,12.1-10.17,12.1Z"/>
          <path class="cls-9" d="M240.67,276.98s-14.01,16.79-48.1,28.61c0,0-.21-4.48,11.58-15.31,11.79-10.83,38.15-18.45,36.52-13.31Z"/>
          <path class="cls-7" d="M240.67,276.98s-26.71,4.19-48.1,28.61c0,0-2.1,2.67-2.36,8.42"/>
          <path class="cls-9" d="M140.17,309.47s14.01,16.79,48.1,28.61c0,0,.21-4.48-11.58-15.31-11.79-10.83-38.15-18.45-36.52-13.31Z"/>
          <path class="cls-7" d="M140.17,309.47s26.71,4.19,48.1,28.61c0,0,2.1,2.67,2.36,8.42"/>
          <path class="cls-9" d="M159.09,343.84s9.32,7.62,29.53,1.52c0,0-.26-3.9-7.82-7.51-7.56-3.61-23.06,2.4-21.71,5.99Z"/>
          <path class="cls-7" d="M159.09,343.84s15.41-9.08,29.53,1.52c0,0,1.41,1.27,2.04,6.02"/>
          <path class="cls-9" d="M237.07,303.79s-9.79,26.34-43.88,38.17c0,0-1.17-14.87,10.61-25.7,11.79-10.83,34.89-17.61,33.26-12.47Z"/>
          <path class="cls-7" d="M237.07,303.79s-24.88,5.32-43.88,38.17c0,0-2.18,3.95-2.44,9.69"/>
          <path class="cls-9" d="M184.79,307.94s-2.87,4.66-14.16,3.21c-11.3-1.45-23.51-14.88-31.13-12.44,0,0,18.76-6.72,45.3,9.23Z"/>
          <path class="cls-7" d="M192.66,371.91c-2.8-23.38-3.99-51.51-.71-81.88,0,0,.43-8.06,4.78-31.47"/>
          <path class="cls-7" d="M141.83,298.1s18.96-4.6,42.96,9.84c5.81,3.5,5.55,10.09,5.18,15.23"/>
        </g>
        <path class="cls-8" d="M168.94,362.24l6.58,40.48c0,2.48,7.02,4.49,15.67,4.49s15.67-2.01,15.67-4.49l6.58-40.48h-44.49Z"/>
        <ellipse cx="191.18" cy="362.24" rx="22.24" ry="4.49"/>
      </g>
    </g>
    <g>
      <path class="cls-13" d="M215.64.01c17,.46,31.07,14.08,32.05,31.06.58,9.98-3.29,19.07-9.8,25.48-.96.95-1.41,2.3-1.18,3.63l2.45,14.47-15.05-8.77c-.86-.5-1.87-.68-2.84-.49-3.68.74-7.57.88-11.59.27-14.86-2.25-26.46-14.56-27.83-29.53C180.01,16.19,195.95-.52,215.64.01Z"/>
      <path d="M213.81,47.77c-.46,0-.81-.14-1.05-.43-.24-.29-.36-.69-.36-1.21,0-.49.13-.88.39-1.19.26-.3.6-.46,1.03-.46.49,0,.84.15,1.07.43.23.29.34.69.34,1.21,0,.46-.12.84-.37,1.16-.24.32-.59.48-1.05.48ZM213.53,36.4c-.03-.94-.07-1.91-.1-2.9-.03-.99-.06-1.98-.08-2.97-.02-.99,0-2,.03-3.04v-12.06h1.15l.05,12.06c0,1.04,0,2.05-.03,3.04-.02.99-.04,1.98-.08,2.97-.04.99-.07,1.96-.11,2.9h-.83Z"/>
    </g>
  </g>
  <g id="TEXTS">
    <text class="cls-10" transform="translate(83.46 199.3)"><tspan x="0" y="0">No Data</tspan></text>
  </g>
</svg>