<?xml version="1.0" encoding="UTF-8" standalone="no"?>
<!-- Created with Inkscape (http://www.inkscape.org/) -->

<svg
   xmlns:dc="http://purl.org/dc/elements/1.1/"
   xmlns:cc="http://creativecommons.org/ns#"
   xmlns:rdf="http://www.w3.org/1999/02/22-rdf-syntax-ns#"
   xmlns:svg="http://www.w3.org/2000/svg"
   xmlns="http://www.w3.org/2000/svg"
   xmlns:sodipodi="http://sodipodi.sourceforge.net/DTD/sodipodi-0.dtd"
   xmlns:inkscape="http://www.inkscape.org/namespaces/inkscape"
   width="305.97"
   height="305.96875"
   id="svg2"
   version="1.1"
   inkscape:version="0.48.5 r10040"
   sodipodi:docname="New document 1">
  <defs
     id="defs4" />
  <sodipodi:namedview
     id="base"
     pagecolor="#ffffff"
     bordercolor="#666666"
     borderopacity="1.0"
     inkscape:pageopacity="0.0"
     inkscape:pageshadow="2"
     inkscape:zoom="0.98994949"
     inkscape:cx="142.2447"
     inkscape:cy="168.0149"
     inkscape:document-units="px"
     inkscape:current-layer="layer1"
     showgrid="false"
     fit-margin-top="0"
     fit-margin-left="0"
     fit-margin-right="0"
     fit-margin-bottom="0"
     inkscape:window-width="1366"
     inkscape:window-height="705"
     inkscape:window-x="-8"
     inkscape:window-y="-8"
     inkscape:window-maximized="1" />
  <metadata
     id="metadata7">
    <rdf:RDF>
      <cc:Work
         rdf:about="">
        <dc:format>image/svg+xml</dc:format>
        <dc:type
           rdf:resource="http://purl.org/dc/dcmitype/StillImage" />
        <dc:title></dc:title>
      </cc:Work>
    </rdf:RDF>
  </metadata>
  <g
     inkscape:label="Layer 1"
     inkscape:groupmode="layer"
     id="layer1"
     transform="translate(-201.30072,-138.05638)">
    <path
       inkscape:connector-curvature="0"
       d="m 201.30072,444.02513 305.97,0 0,-305.96875 -305.97,0 0,305.96875 z"
       style="fill:#00539a;fill-opacity:1;fill-rule:nonzero;stroke:none"
       id="path3432" />
    <g
       id="g3442"
       transform="matrix(1.25,0,0,-1.25,391.06522,350.84363)">
      <path
         inkscape:connector-curvature="0"
         d="m 0,0 -0.568,-3.177 c -0.457,0.279 -0.934,0.463 -1.429,0.553 -0.494,0.09 -1.024,0.089 -1.588,-10e-4 -1.076,-0.172 -1.967,-0.625 -2.679,-1.355 -0.71,-0.732 -1.167,-1.664 -1.371,-2.802 -0.203,-1.14 -0.063,-1.979 0.42,-2.518 0.485,-0.539 1.264,-0.721 2.338,-0.549 0.601,0.096 1.187,0.277 1.76,0.546 0.572,0.268 1.12,0.616 1.642,1.044 l -0.57,-3.187 c -0.641,-0.321 -1.282,-0.588 -1.92,-0.799 -0.64,-0.212 -1.27,-0.366 -1.893,-0.467 -2.169,-0.347 -3.764,-0.055 -4.787,0.877 -1.022,0.931 -1.353,2.4 -0.994,4.41 0.359,2.008 1.251,3.675 2.677,5.001 1.425,1.324 3.221,2.159 5.39,2.506 0.63,0.101 1.241,0.145 1.833,0.13 C -1.148,0.197 -0.568,0.126 0,0"
         style="fill:#ffffff;fill-opacity:1;fill-rule:nonzero;stroke:none"
         id="path3444" />
    </g>
    <g
       id="g3446"
       transform="matrix(1.25,0,0,-1.25,401.41397,348.36613)">
      <path
         inkscape:connector-curvature="0"
         d="m 0,0 c 2.068,0.331 3.583,0.024 4.543,-0.922 0.962,-0.945 1.262,-2.417 0.905,-4.42 -0.358,-2.002 -1.219,-3.661 -2.585,-4.98 -1.364,-1.317 -3.081,-2.141 -5.149,-2.472 -2.075,-0.333 -3.597,-0.028 -4.564,0.916 -0.968,0.944 -1.273,2.417 -0.915,4.418 0.358,2.003 1.223,3.663 2.595,4.982 C -3.799,-1.159 -2.075,-0.333 0,0 m -0.496,-2.785 c -0.854,-0.137 -1.557,-0.551 -2.115,-1.243 -0.558,-0.691 -0.942,-1.623 -1.15,-2.79 -0.208,-1.169 -0.145,-2.025 0.191,-2.575 0.336,-0.548 0.93,-0.753 1.782,-0.617 0.838,0.135 1.533,0.546 2.088,1.237 0.553,0.691 0.935,1.621 1.144,2.789 0.208,1.169 0.146,2.026 -0.185,2.577 -0.335,0.548 -0.918,0.755 -1.755,0.622"
         style="fill:#ffffff;fill-opacity:1;fill-rule:nonzero;stroke:none"
         id="path3448" />
    </g>
    <g
       id="g3450"
       transform="matrix(1.25,0,0,-1.25,413.03647,341.10238)">
      <path
         inkscape:connector-curvature="0"
         d="M 0,0 3.843,0.615 0.819,-16.312 -3.025,-16.928 0,0 z"
         style="fill:#ffffff;fill-opacity:1;fill-rule:nonzero;stroke:none"
         id="path3452" />
    </g>
    <g
       id="g3454"
       transform="matrix(1.25,0,0,-1.25,433.20397,349.98375)">
      <path
         inkscape:connector-curvature="0"
         d="m 0,0 -1.243,-6.952 -3.874,-0.621 0.323,1.805 c -0.648,-0.823 -1.324,-1.453 -2.028,-1.894 -0.705,-0.44 -1.518,-0.734 -2.441,-0.883 -1.245,-0.199 -2.191,0.007 -2.835,0.619 -0.646,0.61 -0.863,1.505 -0.653,2.68 0.255,1.429 0.927,2.555 2.017,3.378 1.088,0.822 2.67,1.4 4.745,1.733 l 2.266,0.362 0.054,0.305 C -3.558,1.149 -3.717,1.561 -4.145,1.771 -4.575,1.98 -5.297,2.004 -6.312,1.841 -7.135,1.709 -7.916,1.503 -8.655,1.224 -9.392,0.942 -10.096,0.587 -10.764,0.156 l 0.531,2.969 c 0.859,0.336 1.713,0.622 2.562,0.86 0.849,0.239 1.688,0.424 2.518,0.558 2.168,0.347 3.657,0.164 4.465,-0.549 C 0.119,3.283 0.349,1.95 0,0 m -6.134,-2.411 c -0.802,-0.127 -1.429,-0.362 -1.884,-0.703 -0.452,-0.339 -0.727,-0.777 -0.822,-1.315 -0.089,-0.494 0.005,-0.853 0.279,-1.081 0.277,-0.228 0.705,-0.294 1.285,-0.202 0.721,0.117 1.378,0.478 1.966,1.083 0.586,0.604 0.952,1.303 1.093,2.093 l 0.08,0.446 -1.997,-0.321"
         style="fill:#ffffff;fill-opacity:1;fill-rule:nonzero;stroke:none"
         id="path3456" />
    </g>
    <g
       id="g3458"
       transform="matrix(1.25,0,0,-1.25,273.63147,365.09238)">
      <path
         inkscape:connector-curvature="0"
         d="m 0,0 c 0,0 21.577,15.077 56.682,23.903 29.581,7.438 63.782,0.951 63.782,0.951 0,0 -26.932,0.063 -54.316,-13.46 C 47.151,2.011 33.699,-11.16 33.699,-11.16 c 0,0 -1.415,4.239 -13.925,7.79 C 10.705,-0.798 0,0 0,0"
         style="fill:#ed3224;fill-opacity:1;fill-rule:nonzero;stroke:none"
         id="path3460" />
    </g>
    <g
       id="g3462"
       transform="matrix(1.25,0,0,-1.25,376.31647,332.17988)">
      <path
         inkscape:connector-curvature="0"
         d="m 0,0 c -5.994,0 -18.762,-0.607 -34.402,-4.885 -8.344,-2.493 -15.758,-5.271 -22.11,-7.98 -10.858,-4.689 -18.463,-9.167 -22.351,-11.471 3.075,-0.203 8.077,-0.389 12.274,-1.121 0.643,-0.113 1.284,-0.167 1.924,-0.167 2.529,0 5.035,0.85 7.509,2.35 6.399,3.882 13.637,9.197 28.109,15.084 18.738,7.622 32.739,8.094 32.739,8.094 C 3.692,-0.096 2.379,0 0,0"
         style="fill:#f16846;fill-opacity:1;fill-rule:nonzero;stroke:none"
         id="path3464" />
    </g>
    <g
       id="g3466"
       transform="matrix(1.25,0,0,-1.25,432.30647,334.12863)">
      <path
         inkscape:connector-curvature="0"
         d="m 0,0 c -2.198,0 -3.985,1.788 -3.985,3.985 0,2.196 1.787,3.982 3.985,3.982 2.195,0 3.981,-1.786 3.981,-3.982 C 3.981,1.788 2.195,0 0,0 m 0,7.475 c -1.927,0 -3.494,-1.566 -3.494,-3.49 0,-1.926 1.567,-3.493 3.494,-3.493 1.924,0 3.489,1.567 3.489,3.493 0,1.924 -1.565,3.49 -3.489,3.49"
         style="fill:#ffffff;fill-opacity:1;fill-rule:nonzero;stroke:none"
         id="path3468" />
    </g>
    <g
       id="g3470"
       transform="matrix(1.25,0,0,-1.25,430.66647,326.16125)">
      <path
         inkscape:connector-curvature="0"
         d="m 0,0 0,-4.614 0.675,0 0,1.938 0.571,0 1.091,-1.938 0.809,0 -1.215,2.049 c 0.632,0.138 0.968,0.561 0.968,1.238 C 2.899,-0.427 2.352,0 1.265,0 L 0,0 z m 0.675,-0.591 0.499,0 c 0.686,0 1.001,-0.218 1.001,-0.769 0,-0.467 -0.322,-0.707 -0.985,-0.707 l -0.515,0 0,1.476"
         style="fill:#ffffff;fill-opacity:1;fill-rule:nonzero;stroke:none"
         id="path3472" />
    </g>
    <g
       id="g3474"
       transform="matrix(1.25,0,0,-1.25,409.77647,303.63738)">
      <path
         inkscape:connector-curvature="0"
         d="m 0,0 c -1.618,0 -3.255,0.156 -4.867,0.462 -2.283,0.432 -6.312,1.898 -9.03,6.009 -4.68,7.077 -6.483,27.136 18.535,39.082 10.28,4.908 21.074,4.396 21.074,4.396 l 2.48,14.649 c 0,0 -37.753,1.578 -55.784,-26.032 -9.73,-14.899 -11.903,-29.502 -5.472,-41.766 0.065,-0.124 0.14,-0.239 0.207,-0.364 l -24.144,17.117 -0.419,0.297 c -0.595,0.454 -0.681,1.206 -0.297,1.941 0.364,0.694 1.952,2.118 3.117,3.11 7.218,6.153 14.255,13.48 15.27,21.82 1.766,14.528 -8.509,21.158 -20.627,20.738 -3.93,-0.137 -7.181,-0.475 -12.055,-1.861 -7.381,-2.103 -16.381,-6.202 -22.661,-11.015 -2.275,-1.76 -3.142,-4.514 -3.484,-5.496 l -2.847,-10.897 c 0,0 6.846,4.635 15.716,9.226 7.464,3.863 12.888,6.369 18.362,6.369 1.618,0 3.028,-0.276 4.189,-0.822 1.522,-0.711 3.302,-2.135 3.78,-4.763 0.768,-4.226 -2.021,-9.382 -8.231,-13.838 -3.17,-2.273 -7.099,-4.802 -10.058,-6.241 -0.814,-0.397 -1.447,-0.704 -1.939,-0.942 l 3.394,17.807 -1.566,-0.545 c -0.216,-0.075 -4.692,-1.779 -8.86,-4.078 -4.52,-2.493 -9.884,-6.123 -11.249,-12.114 -0.105,-0.459 -0.216,-0.879 -0.346,-1.339 l -14.772,-64.619 c 1.57,1.038 9.814,6.325 23.45,12.182 l 6.538,31.395 0.056,0.172 c 0.985,3.585 3.318,4.563 6.849,2.973 l 31.289,-20.682 c 4.12,0.606 11.342,1.541 17.524,1.648 8.402,0.146 11.101,-0.169 17.581,-0.844 3.782,-0.396 6.93,-0.705 9.799,-0.625 8.287,0.23 15.771,3.143 22.295,7.627 l 0.332,0.227 0.068,0.394 3.294,19.191 0.426,2.478 -1.974,-1.581 C 15.703,3.446 7.777,0 0,0"
         style="fill:#ffffff;fill-opacity:1;fill-rule:nonzero;stroke:none"
         id="path3476" />
    </g>
    <g
       id="g3478"
       transform="matrix(1.25,0,0,-1.25,439.99272,238.43863)">
      <path
         inkscape:connector-curvature="0"
         d="m 0,0 c 0,0 -11.833,-0.226 -21.525,-5.409 -9.053,-4.843 -21.823,-13.952 -21.017,-30.71 0.46,-9.548 6.855,-13.236 10.04,-14.418 -1.894,0.915 -3.96,2.417 -5.568,4.849 -4.68,7.077 -6.483,27.136 18.536,39.082 10.279,4.908 21.073,4.396 21.073,4.396 L 4.019,12.439 1.944,10.649 0,0"
         style="fill:#a6a8ab;fill-opacity:1;fill-rule:nonzero;stroke:none"
         id="path3480" />
    </g>
    <g
       id="g3482"
       transform="matrix(1.25,0,0,-1.25,336.21022,283.41863)">
      <path
         inkscape:connector-curvature="0"
         d="m 0,0 c 0.137,-0.885 0.629,-1.583 1.223,-2.125 -0.397,0.456 -0.42,1.105 -0.087,1.741 0.364,0.694 1.952,2.118 3.117,3.11 7.218,6.154 14.255,13.481 15.27,21.82 0.836,6.876 -1.028,11.98 -4.505,15.407 L 13.1,40.887 c 0,0 1.498,-1.18 2.704,-3.156 C 18.846,32.744 22.256,20.602 3.746,5.472 1.79,3.874 -0.344,2.204 0,0"
         style="fill:#a6a8ab;fill-opacity:1;fill-rule:nonzero;stroke:none"
         id="path3484" />
    </g>
    <g
       id="g3486"
       transform="matrix(1.25,0,0,-1.25,306.53147,303.80238)">
      <path
         inkscape:connector-curvature="0"
         d="m 0,0 0.055,0.172 c 0.548,1.993 1.513,3.177 2.868,3.566 0.286,0.502 0.724,0.938 1.406,1.165 0,0 -4.437,0.463 -6.162,-3.305 -1.469,-3.208 -7.213,-29.977 -7.213,-29.977 0,0 -7.135,-3.287 -11.586,-5.823 -4.282,-2.438 -5.768,-3.643 -5.768,-3.643 l -3.581,-5.699 -0.007,-0.033 c 1.569,1.038 9.814,6.325 23.45,12.182 L 0,0"
         style="fill:#a6a8ab;fill-opacity:1;fill-rule:nonzero;stroke:none"
         id="path3488" />
    </g>
    <g
       id="g3490"
       transform="matrix(1.25,0,0,-1.25,310.79534,277.16363)">
      <path
         inkscape:connector-curvature="0"
         d="M 0,0 3.394,17.807 1.425,15.852 -2.351,-0.941 c 0,0 1.683,0.632 2.351,0.941"
         style="fill:#a6a8ab;fill-opacity:1;fill-rule:nonzero;stroke:none"
         id="path3492" />
    </g>
    <g
       id="g3494"
       transform="matrix(1.25,0,0,-1.25,326.1191,243.90625)">
      <path
         inkscape:connector-curvature="0"
         d="m 0,0 c 1.617,0 3.027,-0.276 4.189,-0.821 1.522,-0.712 3.301,-2.135 3.779,-4.764 0.113,-0.621 0.14,-1.264 0.1,-1.919 0.353,1.73 0.189,3.9 -1.49,6.188 -4.873,6.639 -20.619,-0.731 -20.619,-0.731 -5.583,-2.256 -17.415,-9.299 -17.415,-9.299 l -2.618,-4.231 -0.004,-0.018 c 0,0 6.846,4.635 15.715,9.226 C -10.898,-2.506 -5.474,0 0,0"
         style="fill:#a6a8ab;fill-opacity:1;fill-rule:nonzero;stroke:none"
         id="path3496" />
    </g>
    <g
       id="g3498"
       transform="matrix(1.25,0,0,-1.25,439.99272,293.13363)">
      <path
         inkscape:connector-curvature="0"
         d="m 0,0 -3.043,-16.197 c 0,0 -8.491,-7.314 -21.009,-7.495 -11.664,-0.169 -20.998,4.142 -20.998,4.142 l 3.381,-2.451 c 0,0 -6.96,0.507 -13.59,0.043 -6.211,-0.435 -11.551,-1.239 -11.551,-1.239 l -1.756,-2.875 c 3.607,0.532 9.581,1.312 15.157,1.572 0.099,0.004 0.199,0.006 0.298,0.011 0.695,0.03 1.384,0.053 2.06,0.065 8.401,0.145 11.1,-0.169 17.581,-0.845 3.782,-0.395 6.93,-0.705 9.798,-0.624 8.287,0.23 15.771,3.143 22.296,7.627 l 0.331,0.227 0.068,0.394 L 2.317,1.546 2.742,4.018 0,0"
         style="fill:#a6a8ab;fill-opacity:1;fill-rule:nonzero;stroke:none"
         id="path3500" />
    </g>
  </g>
</svg>
